<mxfile host="app.diagrams.net" modified="2023-07-13T10:37:30.946Z" agent="Mozilla/5.0 (Macintosh; Intel Mac OS X 10_15_7) AppleWebKit/537.36 (KHTML, like Gecko) Chrome/114.0.0.0 Safari/537.36" etag="A2TdeBjFdSm8_bIylrXi" version="21.6.2" type="github">
  <diagram name="上下游关系图" id="Kp_FxqHczAHu_dyA3q2S">
    <mxGraphModel dx="1434" dy="796" grid="1" gridSize="10" guides="1" tooltips="1" connect="1" arrows="1" fold="1" page="1" pageScale="1" pageWidth="827" pageHeight="1169" math="0" shadow="0">
      <root>
        <mxCell id="0" />
        <mxCell id="1" parent="0" />
        <mxCell id="mWYkn9orQU6s0zdIkVGY-18" value="" style="rounded=0;whiteSpace=wrap;html=1;" vertex="1" parent="1">
          <mxGeometry x="40" y="680" width="760" height="130" as="geometry" />
        </mxCell>
        <mxCell id="mWYkn9orQU6s0zdIkVGY-9" style="edgeStyle=orthogonalEdgeStyle;rounded=0;orthogonalLoop=1;jettySize=auto;html=1;exitX=0.5;exitY=1;exitDx=0;exitDy=0;" edge="1" parent="1" source="mWYkn9orQU6s0zdIkVGY-1" target="mWYkn9orQU6s0zdIkVGY-7">
          <mxGeometry relative="1" as="geometry">
            <Array as="points">
              <mxPoint x="310" y="490" />
              <mxPoint x="420" y="490" />
            </Array>
          </mxGeometry>
        </mxCell>
        <mxCell id="mWYkn9orQU6s0zdIkVGY-1" value="现金借款&lt;br&gt;（cash-loan)" style="ellipse;whiteSpace=wrap;html=1;" vertex="1" parent="1">
          <mxGeometry x="250" y="280" width="120" height="70" as="geometry" />
        </mxCell>
        <mxCell id="mWYkn9orQU6s0zdIkVGY-6" style="edgeStyle=orthogonalEdgeStyle;rounded=0;orthogonalLoop=1;jettySize=auto;html=1;" edge="1" parent="1" target="mWYkn9orQU6s0zdIkVGY-5">
          <mxGeometry relative="1" as="geometry">
            <mxPoint x="560" y="350" as="sourcePoint" />
          </mxGeometry>
        </mxCell>
        <mxCell id="mWYkn9orQU6s0zdIkVGY-2" value="标签系统&lt;br&gt;（label)" style="ellipse;whiteSpace=wrap;html=1;" vertex="1" parent="1">
          <mxGeometry x="500" y="280" width="120" height="70" as="geometry" />
        </mxCell>
        <mxCell id="mWYkn9orQU6s0zdIkVGY-8" style="edgeStyle=orthogonalEdgeStyle;rounded=0;orthogonalLoop=1;jettySize=auto;html=1;exitX=0.5;exitY=1;exitDx=0;exitDy=0;exitPerimeter=0;" edge="1" parent="1" source="mWYkn9orQU6s0zdIkVGY-5" target="mWYkn9orQU6s0zdIkVGY-7">
          <mxGeometry relative="1" as="geometry">
            <Array as="points">
              <mxPoint x="560" y="490" />
              <mxPoint x="420" y="490" />
            </Array>
          </mxGeometry>
        </mxCell>
        <mxCell id="mWYkn9orQU6s0zdIkVGY-5" value="kafka&lt;br&gt;(RECALL_DW_TOPIC&lt;span style=&quot;background-color: initial;&quot;&gt;)&lt;/span&gt;" style="shape=cylinder3;whiteSpace=wrap;html=1;boundedLbl=1;backgroundOutline=1;size=15;" vertex="1" parent="1">
          <mxGeometry x="530" y="390" width="60" height="80" as="geometry" />
        </mxCell>
        <mxCell id="mWYkn9orQU6s0zdIkVGY-20" style="edgeStyle=orthogonalEdgeStyle;rounded=0;orthogonalLoop=1;jettySize=auto;html=1;entryX=0.5;entryY=0;entryDx=0;entryDy=0;" edge="1" parent="1" source="mWYkn9orQU6s0zdIkVGY-7" target="mWYkn9orQU6s0zdIkVGY-18">
          <mxGeometry relative="1" as="geometry" />
        </mxCell>
        <mxCell id="mWYkn9orQU6s0zdIkVGY-7" value="召回系统&lt;br&gt;（recall）" style="ellipse;whiteSpace=wrap;html=1;" vertex="1" parent="1">
          <mxGeometry x="360" y="550" width="120" height="70" as="geometry" />
        </mxCell>
        <mxCell id="mWYkn9orQU6s0zdIkVGY-10" value="电销系统&lt;br&gt;（call）" style="ellipse;whiteSpace=wrap;html=1;" vertex="1" parent="1">
          <mxGeometry x="70" y="710" width="120" height="70" as="geometry" />
        </mxCell>
        <mxCell id="mWYkn9orQU6s0zdIkVGY-12" value="增值/中收&lt;br&gt;（pretii）" style="ellipse;whiteSpace=wrap;html=1;" vertex="1" parent="1">
          <mxGeometry x="210" y="710" width="120" height="70" as="geometry" />
        </mxCell>
        <mxCell id="mWYkn9orQU6s0zdIkVGY-14" value="贷超&lt;br&gt;（bravvos）" style="ellipse;whiteSpace=wrap;html=1;" vertex="1" parent="1">
          <mxGeometry x="360" y="710" width="120" height="70" as="geometry" />
        </mxCell>
        <mxCell id="mWYkn9orQU6s0zdIkVGY-15" value="广告&lt;br&gt;（advertisement）" style="ellipse;whiteSpace=wrap;html=1;" vertex="1" parent="1">
          <mxGeometry x="510" y="710" width="120" height="70" as="geometry" />
        </mxCell>
        <mxCell id="mWYkn9orQU6s0zdIkVGY-19" value="通知&lt;br&gt;（notification）" style="ellipse;whiteSpace=wrap;html=1;" vertex="1" parent="1">
          <mxGeometry x="650" y="710" width="120" height="70" as="geometry" />
        </mxCell>
      </root>
    </mxGraphModel>
  </diagram>
</mxfile>
